<?xml version="1.0" encoding="UTF-8"?>
<svg width="600" height="100" viewBox="0 0 600 100" xmlns="http://www.w3.org/2000/svg">
  <defs>
    <!-- Gradients for each icon type -->
    <radialGradient id="omega3Gradient" cx="50%" cy="50%" r="70%" fx="40%" fy="40%">
      <stop offset="0%" stop-color="#90CAF9" />
      <stop offset="100%" stop-color="#1976D2" />
    </radialGradient>
    
    <radialGradient id="asamGradient" cx="50%" cy="50%" r="70%" fx="40%" fy="40%">
      <stop offset="0%" stop-color="#CE93D8" />
      <stop offset="100%" stop-color="#7B1FA2" />
    </radialGradient>
    
    <radialGradient id="xoGradient" cx="50%" cy="50%" r="70%" fx="40%" fy="40%">
      <stop offset="0%" stop-color="#A5D6A7" />
      <stop offset="100%" stop-color="#388E3C" />
    </radialGradient>
    
    <radialGradient id="beoTotGradient" cx="50%" cy="50%" r="70%" fx="40%" fy="40%">
      <stop offset="0%" stop-color="#AED581" />
      <stop offset="100%" stop-color="#7CB342" />
    </radialGradient>
    
    <radialGradient id="damTotGradient" cx="50%" cy="50%" r="70%" fx="40%" fy="40%">
      <stop offset="0%" stop-color="#80DEEA" />
      <stop offset="100%" stop-color="#00796B" />
    </radialGradient>
    
    <radialGradient id="xoTotGradient" cx="50%" cy="50%" r="70%" fx="40%" fy="40%">
      <stop offset="0%" stop-color="#E6EE9C" />
      <stop offset="100%" stop-color="#AFB42B" />
    </radialGradient>
    
    <!-- Shadow filter -->
    <filter id="iconShadow" x="-20%" y="-20%" width="140%" height="140%">
      <feGaussianBlur in="SourceAlpha" stdDeviation="2" />
      <feOffset dx="1" dy="1" result="offsetblur" />
      <feComponentTransfer>
        <feFuncA type="linear" slope="0.5" />
      </feComponentTransfer>
      <feMerge>
        <feMergeNode />
        <feMergeNode in="SourceGraphic" />
      </feMerge>
    </filter>
  </defs>
  
  <!-- Omega 3 -->
  <circle cx="50" cy="50" r="40" fill="url(#omega3Gradient)" stroke="#1976D2" stroke-width="3" filter="url(#iconShadow)" />
  <path d="M30,40 C40,30 60,30 70,40 C70,60 30,60 30,40 Z" fill="#BBDEFB" stroke="#1976D2" stroke-width="1" />
  <ellipse cx="35" cy="35" rx="5" ry="3" fill="white" fill-opacity="0.5" transform="rotate(-15 35 35)" />

  <!-- ASAM -->
  <circle cx="150" cy="50" r="40" fill="url(#asamGradient)" stroke="#7B1FA2" stroke-width="3" filter="url(#iconShadow)" />
  <circle cx="150" cy="50" r="25" fill="#E1BEE7" stroke="#7B1FA2" stroke-width="1" fill-opacity="0.9" />
  <circle cx="150" cy="50" r="12" fill="#9C27B0" />
  <ellipse cx="140" cy="40" rx="5" ry="3" fill="white" fill-opacity="0.4" />

  <!-- Xơ -->
  <circle cx="250" cy="50" r="40" fill="url(#xoGradient)" stroke="#388E3C" stroke-width="3" filter="url(#iconShadow)" />
  <path d="M230,30 L270,70 M230,70 L270,30" stroke="#E8F5E9" stroke-width="8" stroke-linecap="round" />
  <path d="M230,30 L270,70 M230,70 L270,30" stroke="#FFF" stroke-width="2" stroke-linecap="round" stroke-opacity="0.5" />
  <ellipse cx="235" cy="35" rx="5" ry="3" fill="white" fill-opacity="0.3" />

  <!-- Béo Tốt -->
  <circle cx="350" cy="50" r="40" fill="url(#beoTotGradient)" stroke="#558B2F" stroke-width="3" filter="url(#iconShadow)" />
  <path d="M330,40 C340,30 360,30 370,40 C380,50 380,70 350,80 C320,70 320,50 330,40 Z" 
        fill="#DCEDC8" stroke="#558B2F" stroke-width="1" />
  <path d="M340,45 C347,38 363,38 370,45 C375,55 370,65 350,72 C330,65 335,55 340,45 Z" 
        fill="#8BC34A" fill-opacity="0.7" />
  <ellipse cx="335" cy="38" rx="5" ry="3" fill="white" fill-opacity="0.4" />

  <!-- Đạm Tốt -->
  <circle cx="450" cy="50" r="40" fill="url(#damTotGradient)" stroke="#00796B" stroke-width="3" filter="url(#iconShadow)" />
  <rect x="430" y="30" width="40" height="40" rx="8" fill="#B2DFDB" stroke="#00796B" stroke-width="1" />
  <rect x="435" y="35" width="30" height="30" rx="5" fill="#26A69A" fill-opacity="0.6" />
  <ellipse cx="435" cy="35" rx="5" ry="3" fill="white" fill-opacity="0.4" />

  <!-- Xơ Tốt -->
  <circle cx="550" cy="50" r="40" fill="url(#xoTotGradient)" stroke="#9E9D24" stroke-width="3" filter="url(#iconShadow)" />
  <path d="M530,30 L570,70 M530,70 L570,30" stroke="#F9FBE7" stroke-width="12" stroke-linecap="round" />
  <path d="M530,30 L570,70 M530,70 L570,30" stroke="#FFF" stroke-width="3" stroke-linecap="round" stroke-opacity="0.5" />
  <ellipse cx="535" cy="35" rx="5" ry="3" fill="white" fill-opacity="0.3" />
</svg>
